<svg width="284" height="284" viewBox="0 0 284 284" fill="none" xmlns="http://www.w3.org/2000/svg">
<g filter="url(#filter0_d)">
<path d="M137.899 256.021C203.151 256.021 256.049 203.166 256.049 137.966C256.049 72.7658 203.151 19.9106 137.899 19.9106C72.6467 19.9106 19.7493 72.7658 19.7493 137.966C19.7493 203.166 72.6467 256.021 137.899 256.021Z" fill="#1D1E1D"/>
<path d="M263.291 124.848C256.724 61.4436 203.095 12 137.899 12C72.7027 12 19.0804 61.4436 12.5132 124.848H263.291Z" fill="#C5312A"/>
<path d="M12.5132 151.084C19.0804 214.488 72.7087 263.931 137.899 263.931C203.089 263.931 256.724 214.488 263.285 151.084H12.5132Z" fill="#E7E7E9"/>
<path d="M137.898 177.657C159.837 177.657 177.621 159.887 177.621 137.966C177.621 116.045 159.837 98.2751 137.898 98.2751C115.96 98.2751 98.1758 116.045 98.1758 137.966C98.1758 159.887 115.96 177.657 137.898 177.657Z" fill="#1D1E1D"/>
<path d="M166.748 149.434C173.085 133.521 165.311 115.487 149.385 109.156C133.458 102.824 115.41 110.592 109.074 126.506C102.737 142.419 110.511 160.453 126.438 166.784C142.364 173.116 160.412 165.348 166.748 149.434Z" fill="#F7F7F7"/>
<path d="M137.901 158.887C149.464 158.887 158.837 149.52 158.837 137.967C158.837 126.413 149.464 117.046 137.901 117.046C126.338 117.046 116.964 126.413 116.964 137.967C116.964 149.52 126.338 158.887 137.901 158.887Z" fill="#B8B5B5"/>
<path d="M137.9 157.346C148.612 157.346 157.295 148.67 157.295 137.967C157.295 127.264 148.612 118.588 137.9 118.588C127.189 118.588 118.506 127.264 118.506 137.967C118.506 148.67 127.189 157.346 137.9 157.346Z" fill="#F7F7F7"/>
</g>
<defs>
<filter id="filter0_d" x="0.513184" y="0" width="282.778" height="283.931" filterUnits="userSpaceOnUse" color-interpolation-filters="sRGB">
<feFlood flood-opacity="0" result="BackgroundImageFix"/>
<feColorMatrix in="SourceAlpha" type="matrix" values="0 0 0 0 0 0 0 0 0 0 0 0 0 0 0 0 0 0 127 0"/>
<feOffset dx="4" dy="4"/>
<feGaussianBlur stdDeviation="8"/>
<feColorMatrix type="matrix" values="0 0 0 0 0.00392157 0 0 0 0 0.109804 0 0 0 0 0.25098 0 0 0 0.2 0"/>
<feBlend mode="normal" in2="BackgroundImageFix" result="effect1_dropShadow"/>
<feBlend mode="normal" in="SourceGraphic" in2="effect1_dropShadow" result="shape"/>
</filter>
</defs>
</svg>
